HIERARCHY
ROOT Hips
{
  OFFSET 66.9386 79.8353 15.3019
  CHANNELS 6 Xposition Yposition Zposition Zrotation Xrotation Yrotation
  JOINT spine
  {
    OFFSET 0 6.84637 0.3937
    CHANNELS 3 Zrotation Xrotation Yrotation
    JOINT spine1
    {
      OFFSET 0 9.49621 0
      CHANNELS 3 Zrotation Xrotation Yrotation
      JOINT spine2
      {
        OFFSET 0 9.09909 0
        CHANNELS 3 Zrotation Xrotation Yrotation
        JOINT Neck
        {
          OFFSET 0 23.3612 1.11378
          CHANNELS 3 Zrotation Xrotation Yrotation
          JOINT Head
          {
            OFFSET 0 7.05802 0
            CHANNELS 3 Zrotation Xrotation Yrotation
            End Site
            {
              OFFSET 0 17.0844 -5.63419
            }
          }
        }
        JOINT RightShoulder
        {
          OFFSET -3.83136 9.82631 -0.533491
          CHANNELS 3 Zrotation Xrotation Yrotation
          JOINT RightArm
          {
            OFFSET 0 12.8881 0
            CHANNELS 3 Zrotation Xrotation Yrotation
            JOINT RightArmRoll
            {
              OFFSET 0 6.50617 0
              CHANNELS 3 Zrotation Xrotation Yrotation
              JOINT RightForeArm
              {
                OFFSET 0 18.9501 0
                CHANNELS 3 Zrotation Xrotation Yrotation
                JOINT RightForeArmRoll
                {
                  OFFSET 0 7.30092 0
                  CHANNELS 3 Zrotation Xrotation Yrotation
                  JOINT RightHand
                  {
                    OFFSET 0 14.6514 0
                    CHANNELS 3 Zrotation Xrotation Yrotation
                    End Site
                    {
                      OFFSET 0 0 0
                    }
                  }
                }
              }
            }
          }
        }
        JOINT LeftShoulder
        {
          OFFSET 3.83136 9.82631 -0.533491
          CHANNELS 3 Zrotation Xrotation Yrotation
          JOINT LeftArm
          {
            OFFSET 0 12.8881 0
            CHANNELS 3 Zrotation Xrotation Yrotation
            JOINT LeftArmRoll
            {
              OFFSET 0 6.50617 0
              CHANNELS 3 Zrotation Xrotation Yrotation
              JOINT LeftForeArm
              {
                OFFSET 0 18.9501 0
                CHANNELS 3 Zrotation Xrotation Yrotation
                JOINT LeftForeArmRoll
                {
                  OFFSET 0 7.30093 0
                  CHANNELS 3 Zrotation Xrotation Yrotation
                  JOINT LeftHand
                  {
                    OFFSET 0 14.6514 0
                    CHANNELS 3 Zrotation Xrotation Yrotation
                    End Site
                    {
                      OFFSET 0 0 0
                    }
                  }
                }
              }
            }
          }
        }
      }
    }
  }
  JOINT RightUpLeg
  {
    OFFSET -6.06837 -1.11278 -0.933477
    CHANNELS 3 Zrotation Xrotation Yrotation
    JOINT RightUpLegRoll
    {
      OFFSET 0 17.1796 0
      CHANNELS 3 Zrotation Xrotation Yrotation
      JOINT RightLeg
      {
        OFFSET 0 -21.2743 0
        CHANNELS 3 Zrotation Xrotation Yrotation
        JOINT RightLegRoll
        {
          OFFSET 0 21.3439 0
          CHANNELS 3 Zrotation Xrotation Yrotation
          JOINT RightFoot
          {
            OFFSET 0 17.7652 0
            CHANNELS 3 Zrotation Xrotation Yrotation
            JOINT RightToeBase
            {
              OFFSET 0 14.8508 0
              CHANNELS 3 Zrotation Xrotation Yrotation
              End Site
              {
                OFFSET 0.0062947 7.19214 -0.829004
              }
            }
          }
        }
      }
    }
  }
  JOINT LeftUpLeg
  {
    OFFSET 6.06837 -1.11278 -0.933477
    CHANNELS 3 Zrotation Xrotation Yrotation
    JOINT LeftUpLegRoll
    {
      OFFSET 0 17.1797 0
      CHANNELS 3 Zrotation Xrotation Yrotation
      JOINT LeftLeg
      {
        OFFSET 0 21.2742 0
        CHANNELS 3 Zrotation Xrotation Yrotation
        JOINT LeftLegRoll
        {
          OFFSET 0 21.5412 0
          CHANNELS 3 Zrotation Xrotation Yrotation
          JOINT LeftFoot
          {
            OFFSET 0 17.5679 0
            CHANNELS 3 Zrotation Xrotation Yrotation
            JOINT LeftToeBase
            {
              OFFSET 0 14.8508 0
              CHANNELS 3 Zrotation Xrotation Yrotation
              End Site
              {
                OFFSET -0.0282102 7.19214 -0.829005
              }
            }
          }
        }
      }
    }
  }
}
MOTION
Frames: 10
Frame Time: 0.00208333
67.667 85.5739 9.48953 -5.32014 -0.481657 43.0961 -0.823601 -3.25699 0.711339 -1.60998 -2.52186 1.48392 -1.62712 -0.877399 1.51047 24.5366 -0.202789 6.81602 -33.7558 9.22392 11.4446 60.3874 -20.7153 -12.9741 16.2769 24.9507 96.3974 -7.78907e-008 -1.29604e-007 -3.84131e-006 91.1548 83.8983 -80.0913 6.39534e-006 2.30686e-006 -2.99999 8.03014 -4.9511 0.697585 -33.0506 -10.705 6.79322 -102.126 12.5432 -30.0231 -1.66985e-006 -1.44915e-006 8.33877e-006 -2.55063 6.96415 0.180015 1.26101e-005 7.22856e-006 2.99257 -8.03008 -4.95123 -0.697588 170.571 -11.9947 3.29077 -180 7.0134e-015 178.24 -177.868 19.9619 178.862 -7.70778e-007 -4.95864e-006 -0.0403198 -16.7389 64.3701 16.9106 6.14529 35.5778 9.85709 -176.171 37.8735 4.83169 4.54188e-006 -4.6773e-006 -1.04793 5.96235 -37.8122 3.86878 -2.56707e-006 -4.94933e-006 -0.769535 19.8819 69.1694 -20.5738 -8.1365 25.2327 3.48774 
67.6954 85.5652 9.53876 -5.41166 -0.489231 43.5865 -0.842075 -3.2549 0.724356 -1.64627 -2.51815 1.51137 -1.66372 -0.873718 1.53853 23.8327 -0.355088 6.76364 -32.9499 9.36558 11.2635 60.102 -20.8374 -13.0928 16.0811 25.6804 96.9096 -7.78907e-008 -1.29604e-007 -3.84131e-006 87.8792 83.9499 -76.915 6.39534e-006 2.30686e-006 -2.99999 8.03014 -4.9511 0.697585 -33.7267 -10.7945 6.88093 -101.452 11.8597 -29.5373 -1.66985e-006 -1.44915e-006 8.33877e-006 -3.23999 7.88861 0.326374 1.26101e-005 7.22856e-006 2.99329 -8.03008 -4.95123 -0.697588 170.779 -12.1817 3.25378 -180 7.01339e-015 178.238 -177.937 19.7699 178.884 -7.70778e-007 -4.95864e-006 -0.0400183 -16.712 64.348 16.8982 6.1587 35.5249 9.84207 -176.36 38.0067 5.06234 4.54188e-006 -4.6773e-006 -1.04603 6.0819 -37.8446 3.92264 -2.56707e-006 -4.94933e-006 -0.775493 19.9006 69.1985 -20.6019 -8.1365 25.2327 3.48774 
67.7295 85.5468 9.58751 -5.51128 -0.49108 44.0757 -0.859784 -3.25417 0.736551 -1.68105 -2.51716 1.5371 -1.6988 -0.872756 1.56483 23.1131 -0.520316 6.71864 -32.1278 9.52359 11.0902 59.7997 -20.9557 -13.2109 15.8883 26.4141 97.4536 -7.78907e-008 -1.29604e-007 -3.84131e-006 84.4647 83.9828 -73.5975 6.39534e-006 2.30686e-006 -2.99999 8.03014 -4.9511 0.697585 -34.4155 -10.8921 6.97585 -100.748 11.1862 -29.0485 -1.66985e-006 -1.44915e-006 8.33877e-006 -3.9397 8.79265 0.473211 1.26101e-005 7.22856e-006 2.99422 -8.03008 -4.95123 -0.697588 170.987 -12.3495 3.21713 -180 7.01338e-015 178.236 -178.007 19.5869 178.904 -7.70778e-007 -4.95864e-006 -0.0391886 -16.6869 64.3299 16.8883 6.17272 35.4708 9.82519 -176.547 38.1518 5.28998 4.54188e-006 -4.6773e-006 -1.04399 6.19904 -37.8774 3.97544 -2.56707e-006 -4.94933e-006 -0.781127 19.9176 69.2253 -20.6278 -8.1365 25.2327 3.48774 
67.7454 85.5256 9.61485 -5.62098 -0.486342 44.5643 -0.876814 -3.25518 0.747784 -1.71449 -2.51962 1.56083 -1.73251 -0.875239 1.58911 22.3806 -0.69498 6.6778 -31.2914 9.6927 10.921 59.4832 -21.0651 -13.3246 15.6988 27.1425 98.0291 -7.78906e-008 -1.29604e-007 -3.84131e-006 80.9282 83.9946 -70.1546 6.39534e-006 2.30686e-006 -2.99999 8.03014 -4.9511 0.697585 -35.1125 -10.9966 7.076 -100.019 10.5326 -28.5696 -1.66985e-006 -1.44915e-006 8.33877e-006 -4.63667 9.65495 0.617079 1.26101e-005 7.22856e-006 2.99528 -8.03008 -4.95123 -0.697588 171.195 -12.4949 3.18054 -180 7.01338e-015 178.234 -178.078 19.4152 178.924 -7.70778e-007 -4.95864e-006 -0.0377555 -16.6643 64.3165 16.8814 6.18712 35.4159 9.80694 -176.73 38.3122 5.51428 4.54188e-006 -4.6773e-006 -1.04175 6.31341 -37.9113 4.02697 -2.56707e-006 -4.94933e-006 -0.786343 19.9328 69.2492 -20.6512 -8.1365 25.2327 3.48774 
67.7806 85.4953 9.65499 -5.74277 -0.47419 45.053 -0.893253 -3.25828 0.757916 -1.74677 -2.52625 1.58227 -1.76503 -0.881895 1.61107 21.6379 -0.875592 6.63793 -30.4426 9.86764 10.7522 59.1552 -21.161 -13.4301 15.5129 27.8563 98.6351 -7.78906e-008 -1.29604e-007 -3.84131e-006 77.2913 83.9834 -66.6072 6.39534e-006 2.30686e-006 -2.99999 8.03014 -4.9511 0.697585 -35.813 -11.1064 7.17941 -99.2715 9.90948 -28.1133 -1.66985e-006 -1.44915e-006 8.33877e-006 -5.31742 10.4542 0.754429 1.26101e-005 7.22856e-006 2.99639 -8.03008 -4.95123 -0.697588 171.405 -12.6148 3.14372 -180 7.01337e-015 178.233 -178.152 19.2569 178.944 -7.70778e-007 -4.95864e-006 -0.0356439 -16.6446 64.309 16.878 6.20172 35.3609 9.78784 -176.909 38.4912 5.73495 4.54188e-006 -4.6773e-006 -1.03925 6.42468 -37.9469 4.07707 -2.56707e-006 -4.94933e-006 -0.791046 19.9458 69.2699 -20.6714 -8.1365 25.2327 3.48774 
67.8037 85.4746 9.69051 -5.87872 -0.453834 45.5423 -0.909188 -3.26385 0.766805 -1.77806 -2.53778 1.60113 -1.79653 -0.89345 1.63045 20.8879 -1.05867 6.5958 -29.5833 10.0431 10.58 58.8183 -21.2383 -13.5236 15.3318 28.5464 99.2703 -7.78907e-008 -1.29604e-007 -3.84131e-006 73.5811 83.9471 -62.9814 6.39534e-006 2.30686e-006 -2.99999 8.03014 -4.9511 0.697585 -36.5123 -11.2203 7.28409 -98.5122 9.32762 -27.6918 -1.66985e-006 -1.44915e-006 8.33877e-006 -5.96807 11.1691 0.881607 1.26101e-005 7.22856e-006 2.99748 -8.03008 -4.95123 -0.697588 171.615 -12.7059 3.10637 -180 7.01337e-015 178.234 -178.228 19.1146 178.963 -7.70778e-007 -4.95864e-006 -0.0327784 -16.6286 64.3081 16.8787 6.21628 35.3062 9.76838 -177.084 38.6919 5.95174 4.54188e-006 -4.6773e-006 -1.03643 6.53251 -37.985 4.12556 -2.56707e-006 -4.94933e-006 -0.795139 19.9564 69.2869 -20.6882 -8.1365 25.2327 3.48774 
67.8256 85.4514 9.72198 -6.03089 -0.424523 46.0328 -0.924705 -3.27225 0.774314 -1.80853 -2.55495 1.61715 -1.82717 -0.910632 1.64697 20.1332 -1.24071 6.5482 -28.7152 10.2139 10.4005 58.4754 -21.2921 -13.6011 15.1566 29.2036 99.9325 -7.78906e-008 -1.29604e-007 -3.84131e-006 69.828 83.884 -59.3066 6.39534e-006 2.30686e-006 -2.99999 8.03014 -4.9511 0.697585 -37.2058 -11.3369 7.38804 -97.7495 8.79839 -27.3171 -1.66985e-006 -1.44915e-006 8.33877e-006 -6.57447 11.7784 0.994854 1.26101e-005 7.22856e-006 2.99846 -8.03008 -4.95123 -0.697588 171.826 -12.7651 3.06822 -180 7.01338e-015 178.235 -178.307 18.9903 178.981 -7.70778e-007 -4.95864e-006 -0.0290837 -16.6167 64.315 16.8841 6.23062 35.2525 9.74906 -177.255 38.9177 6.16443 4.54188e-006 -4.6773e-006 -1.03324 6.63654 -38.0261 4.17226 -2.56707e-006 -4.94933e-006 -0.798528 19.9642 69.2998 -20.701 -8.1365 25.2327 3.48774 
67.8449 85.4184 9.74547 -6.2014 -0.385544 46.5253 -0.939892 -3.28384 0.780302 -1.83835 -2.57846 1.63004 -1.85712 -0.934169 1.66035 19.3766 -1.41826 6.4919 -27.8404 10.3745 10.2101 58.1292 -21.3178 -13.6589 14.9894 29.8188 100.619 -7.78906e-008 -1.29604e-007 -3.84131e-006 66.0652 83.7925 -55.6152 6.39534e-006 2.30686e-006 -2.99999 8.03014 -4.9511 0.697585 -37.889 -11.4547 7.48928 -96.9917 8.33337 -27.001 -1.66985e-006 -1.44915e-006 8.33877e-006 -7.12223 12.2609 1.09032 1.26101e-005 7.22856e-006 2.99926 -8.03008 -4.95123 -0.697588 172.038 -12.7892 3.02898 -180 7.01339e-015 178.237 -178.389 18.8866 178.999 -7.70778e-007 -4.95864e-006 -0.0244847 -16.6095 64.3304 16.8947 6.24453 35.2003 9.7304 -177.421 39.1719 6.37285 4.54188e-006 -4.6773e-006 -1.02963 6.73645 -38.071 4.217 -2.56707e-006 -4.94933e-006 -0.801118 19.9691 69.3083 -20.7094 -8.1365 25.2327 3.48774 
67.865 85.3914 9.76979 -6.3924 -0.336229 47.0203 -0.954836 -3.299 0.784629 -1.86771 -2.60906 1.63952 -1.88656 -0.964786 1.6703 18.6207 -1.58783 6.42366 -26.9607 10.5198 10.0049 57.7826 -21.3103 -13.6931 14.8324 30.3829 101.327 -7.78907e-008 -1.29604e-007 -3.84131e-006 62.3271 83.6713 -51.9406 6.39534e-006 2.30686e-006 -2.99999 8.03014 -4.9511 0.697585 -38.5573 -11.5724 7.58581 -96.2478 7.94427 -26.7555 -1.66985e-006 -1.44915e-006 8.33877e-006 -7.59691 12.5952 1.16412 1.26101e-005 7.22856e-006 2.99979 -8.03008 -4.95123 -0.697588 172.251 -12.775 2.98838 -180 7.0134e-015 178.241 -178.475 18.8055 179.017 -7.70778e-007 -4.95864e-006 -0.018906 -16.6078 64.3555 16.9111 6.2578 35.1502 9.71288 -177.583 39.4577 6.57688 4.54188e-006 -4.6773e-006 -1.02554 6.83189 -38.1204 4.2596 -2.56707e-006 -4.94933e-006 -0.802812 19.9706 69.3118 -20.713 -8.1365 25.2327 3.48774 
67.8656 85.3531 9.75993 -6.60606 -0.275954 47.5184 -0.969627 -3.31808 0.787155 -1.89677 -2.64747 1.6453 -1.91566 -1.00321 1.67655 17.8681 -1.74594 6.34025 -26.0782 10.6444 9.7811 57.4381 -21.2648 -13.6999 14.6888 30.8872 102.051 -7.78906e-008 -1.29604e-007 -3.84131e-006 58.6471 83.5195 -48.3153 6.39534e-006 2.30686e-006 -2.99999 8.03014 -4.9511 0.697585 -39.2062 -11.6888 7.6756 -95.5264 7.64278 -26.5923 -1.66985e-006 -1.44915e-006 8.33877e-006 -7.98418 12.7601 1.21236 1.26101e-005 7.22856e-006 2.99999 -8.03008 -4.95123 -0.697588 172.465 -12.7193 2.94617 -180 7.01342e-015 178.246 -178.565 18.7495 179.035 -7.70778e-007 -4.95864e-006 -0.0122724 -16.612 64.391 16.934 6.27026 35.1027 9.697 -177.74 39.7785 6.77642 4.54188e-006 -4.6773e-006 -1.02092 6.92252 -38.1748 4.29988 -2.56707e-006 -4.94933e-006 -0.803517 19.9687 69.3099 -20.7113 -8.1365 25.2327 3.48774 
